<svg width="61" height="60" viewBox="0 0 61 60" fill="none" xmlns="http://www.w3.org/2000/svg">
<rect x="0.5" width="60" height="60" fill="#68B738"/>
<ellipse cx="35.7042" cy="24.3299" rx="1.0873" ry="1.08512" fill="white"/>
<ellipse cx="24.8311" cy="24.3299" rx="1.08731" ry="1.08512" fill="white"/>
<ellipse cx="24.8311" cy="37.3512" rx="1.08731" ry="1.08512" fill="white"/>
<ellipse cx="30.2677" cy="39.5215" rx="1.0873" ry="1.08512" fill="white"/>
<ellipse cx="21.5692" cy="30.7748" rx="1.08731" ry="1.08512" fill="white"/>
<ellipse cx="38.9661" cy="30.7748" rx="1.0873" ry="1.08512" fill="white"/>
<ellipse cx="35.7042" cy="37.3512" rx="1.0873" ry="1.08512" fill="white"/>
<path fill-rule="evenodd" clip-rule="evenodd" d="M35.4215 42.0581C35.8298 41.8622 36.3226 41.9298 36.6385 42.2542L38.4644 44.1292C38.7319 44.4039 39.1734 44.4039 39.441 44.1292C39.6987 43.8645 39.6987 43.4427 39.441 43.1781L38.0843 41.7849C37.6584 41.3475 37.7228 40.6356 38.182 40.2333C40.8238 37.9195 42.5 34.4688 42.5 30.6145C42.5 23.6477 37.0235 18 30.2678 18C23.5122 18 18.0356 23.6477 18.0356 30.6145C18.0356 34.4288 19.6773 37.8477 22.2717 40.1608C22.7244 40.5644 22.7849 41.2708 22.3617 41.7054L20.9276 43.1781C20.6698 43.4427 20.6698 43.8645 20.9276 44.1291C21.1951 44.4039 21.6366 44.4039 21.9042 44.1292L23.7838 42.199C24.1025 41.8718 24.6004 41.8061 25.0102 42.0076C26.603 42.7907 28.3858 43.229 30.2678 43.229C32.109 43.229 33.8553 42.8095 35.4215 42.0581ZM30.2678 41.8274C36.2728 41.8274 41.1409 36.8072 41.1409 30.6145C41.1409 24.4218 36.2728 19.4016 30.2678 19.4016C24.2628 19.4016 19.3948 24.4218 19.3948 30.6145C19.3948 36.8072 24.2628 41.8274 30.2678 41.8274ZM29.5083 30.298V26.5001V22.9409C29.5083 22.5094 29.8581 22.1596 30.2895 22.1596C30.721 22.1596 31.0708 22.5094 31.0708 22.9409V26.5001V30.298V30.8406V31.1226C31.0708 31.5661 30.7113 31.9257 30.2677 31.9257C29.8483 31.9257 29.5083 31.5857 29.5083 31.1663V30.8406V30.298Z"/>
<path fill-rule="evenodd" clip-rule="evenodd" d="M35.4215 42.0581C35.8298 41.8622 36.3226 41.9298 36.6385 42.2542L38.4644 44.1292C38.7319 44.4039 39.1734 44.4039 39.441 44.1292C39.6987 43.8645 39.6987 43.4427 39.441 43.1781L38.0843 41.7849C37.6584 41.3475 37.7228 40.6356 38.182 40.2333C40.8238 37.9195 42.5 34.4688 42.5 30.6145C42.5 23.6477 37.0235 18 30.2678 18C23.5122 18 18.0356 23.6477 18.0356 30.6145C18.0356 34.4288 19.6773 37.8477 22.2717 40.1608C22.7244 40.5644 22.7849 41.2708 22.3617 41.7054L20.9276 43.1781C20.6698 43.4427 20.6698 43.8645 20.9276 44.1291C21.1951 44.4039 21.6366 44.4039 21.9042 44.1292L23.7838 42.199C24.1025 41.8718 24.6004 41.8061 25.0102 42.0076C26.603 42.7907 28.3858 43.229 30.2678 43.229C32.109 43.229 33.8553 42.8095 35.4215 42.0581ZM30.2678 41.8274C36.2728 41.8274 41.1409 36.8072 41.1409 30.6145C41.1409 24.4218 36.2728 19.4016 30.2678 19.4016C24.2628 19.4016 19.3948 24.4218 19.3948 30.6145C19.3948 36.8072 24.2628 41.8274 30.2678 41.8274ZM29.5083 30.298V26.5001V22.9409C29.5083 22.5094 29.8581 22.1596 30.2895 22.1596C30.721 22.1596 31.0708 22.5094 31.0708 22.9409V26.5001V30.298V30.8406V31.1226C31.0708 31.5661 30.7113 31.9257 30.2677 31.9257C29.8483 31.9257 29.5083 31.5857 29.5083 31.1663V30.8406V30.298Z" fill="white"/>
<rect x="29.5" y="19" width="4" height="1.5" transform="rotate(-90 29.5 19)" fill="white"/>
<rect x="22.5" y="15" width="15.5" height="1.5" rx="0.75" fill="white"/>
</svg>
