<svg width="93" height="75" viewBox="0 0 93 75" fill="none" xmlns="http://www.w3.org/2000/svg">
<path d="M78.8551 30.2623C76.585 25.0541 72.9289 20.5065 68.2513 17.0727C63.5737 13.6389 58.038 11.4389 52.1957 10.6918C46.3535 9.94474 40.4088 10.6768 34.954 12.8149C29.4993 14.953 24.725 18.4226 21.107 22.8779C17.489 27.3332 15.1536 32.6186 14.3336 38.2073C13.5136 43.796 14.2376 49.4929 16.4334 54.7303C18.6292 59.9676 22.2202 64.5625 26.8484 68.0571C31.4767 71.5516 36.9806 73.8237 42.8117 74.6469C42.0479 72.0116 41.2709 69.0989 40.5861 66.0096C42.5783 67.2469 44.6751 68.3225 46.8545 69.225V69.225C46.8545 69.225 47.0126 71.9486 47.2233 74.9874C49.5782 75.0263 51.9309 74.8276 54.2423 74.3948C54.1826 74.0779 54.1826 73.7533 54.2423 73.4365C54.6242 71.0785 55.6777 66.8292 55.8885 64.093C57.4072 62.7328 58.6956 61.1545 59.7075 59.4149V59.4149L59.6284 59.9697C58.9041 65.3413 57.3897 71.0785 56.4679 72.6673C56.1694 73.1932 55.8021 73.6805 55.3749 74.1173C60.1418 73.0466 64.6084 70.996 68.4652 68.1077C72.3219 65.2194 75.4765 61.5625 77.7102 57.3906C79.9439 53.2187 81.2032 48.6315 81.4009 43.9471C81.5986 39.2627 80.7299 34.5932 78.8551 30.2623V30.2623ZM76.9193 35.0412C76.3399 35.5834 75.1415 35.9491 74.9439 34.3098C74.7464 32.6706 74.6937 31.5232 74.6937 31.5232C74.6937 31.5232 72.1521 27.1982 71.204 27.1478C70.2558 27.0973 63.5265 31.5232 61.7486 33.4524C60.2079 35.079 59.905 34.9655 59.905 37.8278C59.905 39.984 60.1947 48.1296 60.0367 54.3586L49.304 57.0948C45.9305 58.0218 42.4999 58.7462 39.0322 59.2636L37.7153 51.9124H37.5309L34.1465 35.306C34.1465 35.306 29.1291 33.4902 27.2855 32.9985C26.4198 32.6359 25.4638 32.518 24.5304 32.6587C23.5971 32.7995 22.7252 33.193 22.0179 33.7929C21.2962 34.3979 20.7192 35.1446 20.3261 35.9824C19.9329 36.8201 19.7329 37.7291 19.7396 38.6474C20.018 39.2335 20.2299 39.8464 20.3717 40.4758C20.4376 41.081 18.7915 41.018 17.738 41.018C16.6844 41.018 16.5264 39.2022 17.3561 37.0713C18.0033 35.4327 18.8056 33.8542 19.7528 32.3554C20.4653 31.0166 21.3842 29.7881 22.4788 28.7113C22.4788 28.7113 22.6631 28.2826 24.1249 28.4087C25.5867 28.5348 33.7119 28.9509 33.7119 28.9509L33.7778 26.0886C42.6093 24.921 51.5165 24.3564 60.4317 24.399C60.4317 25.1681 60.4317 25.9373 60.4317 26.7065C63.8086 25.2309 67.4448 24.3755 71.1513 24.1846C71.3496 24.1798 71.5461 24.2222 71.7231 24.308C71.9 24.3939 72.052 24.5204 72.1653 24.6764C72.613 25.2186 75.339 28.4591 75.6551 28.9257C76.5403 30.1371 77.3452 31.4005 78.065 32.7085C77.8183 33.5367 77.4312 34.3205 76.9193 35.0286V35.0412Z" fill="#FDC305"/>
<path d="M74.3521 27.3243C74.9711 28.0809 75.511 28.7492 75.669 28.9509C76.5542 30.1623 77.3591 31.4257 78.0789 32.7337C77.8284 33.5347 77.4461 34.2924 76.9464 34.9781C76.367 35.5203 75.1686 35.886 74.9711 34.2468C74.7735 32.6076 74.6945 31.5232 74.6945 31.5232C74.6945 31.5232 72.1529 27.1982 71.2047 27.1478C70.2566 27.0973 63.5272 31.5232 61.7494 33.4524C60.2086 35.079 59.9058 34.9655 59.9058 37.8278C59.9058 39.7192 60.1296 46.213 60.077 51.9881C62.4605 52.2402 65.9635 52.8707 67.017 54.3586C67.017 54.3586 66.6351 45.3051 77.302 50.0462C77.302 50.0462 77.6707 37.7017 92.3936 40.8667C87.3886 35.2402 81.2532 30.6348 74.3521 27.3243V27.3243Z" fill="#F06351"/>
<path d="M60.485 24.399C60.5386 17.4118 59.9214 10.4348 58.6414 3.55581C58.6414 3.55581 58.4438 1.91661 57.4957 3.25319C56.7133 4.85106 56.1808 6.55052 55.9154 8.2969C50.2859 7.95105 44.6352 8.09454 39.0328 8.72562C37.9529 5.25807 36.1093 3.68191 35.2269 4.09801C34.3446 4.51412 34.2393 8.23386 34.2393 8.23386L33.8047 26.0886C42.645 24.9198 51.561 24.3552 60.485 24.399V24.399Z" fill="#F06351"/>
<path d="M59.7203 59.4149C59.8915 58.0657 59.9836 56.2752 60.0363 54.2956L49.3041 57.0318C45.9323 57.9801 42.5018 58.7255 39.0328 59.2636L40.4945 65.5683C40.4945 65.707 40.4945 65.8457 40.5867 65.9844C42.5787 67.2217 44.6754 68.2972 46.8548 69.1997C50.0398 67.7419 53.0733 65.9982 55.9146 63.9921V64.0678C57.4265 62.7143 58.7102 61.1447 59.7203 59.4149V59.4149Z" fill="#E55645"/>
<path d="M42.1407 20.4523C42.0749 20.3262 43.4575 21.3097 43.9974 21.6123C44.5373 21.9149 44.8007 22.1419 44.8007 22.3563C44.8007 22.5706 44.4583 22.785 43.9843 22.785C43.5102 22.785 42.7728 22.6337 42.6674 22.4571C42.5621 22.2806 43.4575 22.4571 43.9053 22.4571H44.2871C43.4764 21.8892 42.7538 21.2142 42.1407 20.4523Z" fill="black"/>
<path d="M52.0174 20.591C52.0174 20.591 50.7005 22.2049 50.582 22.2806C50.4635 22.3563 50.3582 22.7093 50.8322 22.6463C51.3765 22.5685 51.9136 22.4505 52.4388 22.2932C52.5836 22.2176 52.5309 22.041 52.2807 22.0662C52.0305 22.0915 51.3853 22.1293 50.9639 22.2049L52.0832 20.6036C52.0832 20.6036 52.1227 20.4523 52.0174 20.591Z" fill="black"/>
<path d="M47.8823 28.2952C48.4927 28.0377 48.9973 27.5945 49.3176 27.0343C49.6864 26.2021 49.3176 25.8869 48.7382 25.7734C47.9411 25.6341 47.1185 25.7872 46.4338 26.2021C45.9202 26.6686 45.9861 27.1226 46.4338 27.463C46.8786 27.797 47.3652 28.0766 47.8823 28.2952V28.2952Z" fill="black"/>
<path d="M47.408 29.884C47.2568 30.17 47.0514 30.4265 46.8023 30.6406C46.4272 30.9295 45.9662 31.0972 45.4854 31.1197C44.7604 31.1879 44.0355 30.9895 43.4575 30.5649C43.192 30.4162 42.9558 30.2242 42.7596 29.9975C42.6279 29.8601 42.4659 29.7525 42.2855 29.6823C42.2855 29.6823 43.2731 34.8647 45.6698 35.6969C48.0664 36.5291 48.5141 34.7386 48.58 34.2594C48.6602 32.8243 48.2837 31.3998 47.5002 30.174C47.5002 29.7957 47.4738 30.0479 47.408 29.884Z" fill="#F06351"/>
<path d="M45.1694 31.3214C44.5531 31.2366 43.9612 31.0331 43.4294 30.7232C42.8975 30.4133 42.4367 30.0034 42.0748 29.5183C42.0424 29.4836 42.0245 29.4388 42.0245 29.3922C42.0245 29.3457 42.0424 29.3008 42.0748 29.2661C42.092 29.2494 42.1125 29.236 42.1351 29.2269C42.1577 29.2178 42.182 29.2132 42.2065 29.2132C42.231 29.2132 42.2553 29.2178 42.2779 29.2269C42.3005 29.236 42.321 29.2494 42.3382 29.2661C42.6641 29.7039 43.0775 30.0753 43.5545 30.3589C44.0314 30.6424 44.5624 30.8325 45.1167 30.918C45.5552 30.8864 45.9796 30.7557 46.3551 30.5364C46.7305 30.3172 47.0462 30.0158 47.2763 29.657L47.4607 29.4174L47.5924 29.6949C47.5924 29.6949 48.0928 30.6532 48.9092 30.7036C49.7256 30.754 50.305 30.174 51.0556 29.077C51.0836 29.0369 51.127 29.009 51.1764 28.9995C51.2258 28.9901 51.2771 28.9998 51.319 29.0266C51.3609 29.0533 51.39 29.0949 51.3999 29.1422C51.4098 29.1895 51.3996 29.2386 51.3717 29.2787C50.4938 30.5145 49.6642 31.1071 48.8829 31.0567C48.5809 31.0183 48.2917 30.9158 48.0365 30.7565C47.7813 30.5972 47.5665 30.3853 47.408 30.1362C47.1504 30.4807 46.8157 30.7658 46.4285 30.9709C46.0412 31.1759 45.6111 31.2957 45.1694 31.3214Z" fill="black"/>
<path d="M47.7504 48.2935C50.4776 48.2935 52.6885 46.1765 52.6885 43.5651C52.6885 40.9536 50.4776 38.8366 47.7504 38.8366C45.0231 38.8366 42.8123 40.9536 42.8123 43.5651C42.8123 46.1765 45.0231 48.2935 47.7504 48.2935Z" fill="#FDC305"/>
<path d="M54.2951 39.7192L50.1734 41.3711L51.6878 34.272L41.8115 46.5787L45.9332 44.9269L44.4188 52.0385L54.2951 39.7192ZM44.5637 44.5486L50.0417 37.727L48.9751 42.7707L51.6087 41.7367L46.0912 48.571L47.1579 43.5272L44.5637 44.5486Z" fill="#111111"/>
<path d="M42.7201 42.695C43.5346 42.695 44.1949 42.0627 44.1949 41.2828C44.1949 40.5028 43.5346 39.8705 42.7201 39.8705C41.9056 39.8705 41.2452 40.5028 41.2452 41.2828C41.2452 42.0627 41.9056 42.695 42.7201 42.695Z" fill="#111111"/>
<path d="M51.3063 47.8144C51.8808 47.8144 52.3466 47.3684 52.3466 46.8183C52.3466 46.2681 51.8808 45.8221 51.3063 45.8221C50.7317 45.8221 50.266 46.2681 50.266 46.8183C50.266 47.3684 50.7317 47.8144 51.3063 47.8144Z" fill="#111111"/>
<path d="M52.5704 45.0782C52.8249 45.0782 53.0313 44.8806 53.0313 44.6369C53.0313 44.3931 52.8249 44.1955 52.5704 44.1955C52.3158 44.1955 52.1095 44.3931 52.1095 44.6369C52.1095 44.8806 52.3158 45.0782 52.5704 45.0782Z" fill="#111111"/>
<path d="M60.4192 26.6812C58.042 28.7331 55.8032 30.9273 53.7162 33.2507C51.6373 35.5573 49.2914 37.6301 46.7235 39.4292C46.4337 38.7609 44.5769 37.5126 44.5769 37.5126C44.5769 37.5126 40.4419 34.8016 37.7291 32.6706C36.2626 31.5011 34.881 30.2373 33.594 28.8879L30.9602 28.7492C34.7621 34.0667 40.332 37.9954 46.763 39.8958C47.8955 39.7192 51.0824 37.5378 53.466 35.7599C56.286 33.4636 58.9268 30.973 61.3673 28.3078C62.0233 27.5613 62.532 26.7068 62.8686 25.786C61.3674 26.2651 60.4192 26.6812 60.4192 26.6812Z" fill="#F06351"/>
<path d="M85.8873 4.41325L74.7469 16.3164L73.1404 13.8072L83.8726 0L85.8873 4.41325Z" fill="#FDC305"/>
<path d="M82.5035 21.7636L89.7988 16.5812L88.7717 11.8653L81.6608 17.9304L82.5035 21.7636Z" fill="#FDC305"/>
<path d="M78.9084 62.252L86.9806 66.2618L90.9443 63.3112L82.1347 59.8436L78.9084 62.252Z" fill="#FDC305"/>
<path d="M2.56775 7.52774L6.61042 3.29102L18.8438 14.6394L17.2373 17.5143L2.56775 7.52774Z" fill="#FDC305"/>
<path d="M9.71828 20.5279L3.52917 16.5812L0.368774 21.461L7.15046 24.4872L9.71828 20.5279Z" fill="#FDC305"/>
<path d="M18.3171 66.2618L12.3256 70.4859L16.0127 75L21.3064 69.9311L18.3171 66.2618Z" fill="#FDC305"/>
<path d="M34.1471 35.306C34.1471 35.306 29.1298 33.4903 27.2861 32.9985C26.4204 32.6359 25.4645 32.518 24.5311 32.6587C23.5977 32.7995 22.7259 33.193 22.0185 33.7929C21.2969 34.3979 20.7198 35.1446 20.3267 35.9824C19.9336 36.8201 19.7336 37.7291 19.7403 38.6474C20.0187 39.2335 20.2306 39.8465 20.3724 40.4758C20.4382 41.081 18.7921 41.018 17.7386 41.018C16.6851 41.018 16.5271 39.2023 17.3567 37.0713C18.004 35.4327 18.8062 33.8542 19.7535 32.3554C12.5764 35.9365 0 44.2081 0 44.2081C3.59735 44.0004 7.20691 44.1017 10.7854 44.5108C17.6991 45.1791 17.3699 50.3993 17.3699 50.3993C19.8016 49.7574 22.2798 49.2896 24.784 48.9997C27.5758 48.8231 27.7734 51.6728 27.7734 51.6728L28.4713 56.54C29.5311 55.4421 30.6998 54.4455 31.9611 53.5642C33.5868 52.3182 35.6567 51.7299 37.7291 51.925V51.925L34.1471 35.306Z" fill="#F06351"/>
</svg>
